<?xml version="1.0" encoding="UTF-8"?>
<svg width="256mm" height="256mm" version="1.1" viewBox="0 0 256 256" xmlns="http://www.w3.org/2000/svg">
 <g>
  <rect x="8.8818e-16" y="-5.5511e-17" width="256" height="256" fill="#d2cac4"/>
  <path d="m74.411 149.7-72.277 105.6a1.1696 1.1696 17.194 0 1-2.1347-0.66058v-42.737a11.539 11.539 108.14 0 1 2.236-6.8267l54.672-74.505a5.1205 5.1205 89.84 0 0-0.017-6.0817l-54.638-73.593a11.431 11.431 71.704 0 1-2.253-6.8141v-42.737a1.1804 1.1804 162.66 0 1 2.151-0.67182l72.244 104.37a12.101 12.101 72.655 0 1 2.151 6.8872v30.866a12.214 12.214 107.19 0 1-2.1347 6.8985z" fill="#009000"/>
  <path d="m181.61 106.27 72.277-105.6a1.1696 1.1696 17.194 0 1 2.1347 0.66058v42.737a11.539 11.539 108.14 0 1-2.236 6.8267l-54.672 74.505a5.1205 5.1205 89.84 0 0 0.017 6.0817l54.638 73.593a11.431 11.431 71.704 0 1 2.253 6.8141v42.737a1.1804 1.1804 162.66 0 1-2.151 0.67182l-72.244-104.37a12.101 12.101 72.655 0 1-2.151-6.8872v-30.866a12.214 12.214 107.19 0 1 2.1347-6.8985z" fill="#009000"/>
 </g>
 <g transform="matrix(2.4776 0 0 2.4776 -762.55 -304.3)">
  <path d="m345.9 157.08-4.615 11.233 12.626 7.4014 20.245-2.3946 2.3946-13.322-12.408-7.1401z" fill="#fff"/>
  <g stroke-width=".26458">
   <path d="m341.05 213.87c-1.5093-0.60686-1.9622-0.99042-2.2041-1.8665-0.35052-1.2695 0.11297-3.7732 0.98458-5.3186 0.73868-1.3097 0.73868-1.3097-1.6056-3.5406-11.095-10.559-12.919-27.339-4.3097-39.654 0.64995-0.92975 1.1817-1.7273 1.1817-1.7724 0-0.0451-0.74414-0.15919-1.6536-0.25362-2.1339-0.22155-4.8678-1.1315-5.0828-1.6918-0.60755-1.5832 6.6356-6.6263 10.441-7.2693 3.4808-0.58822 5.0303-2.6418 4.2815-5.6747-1.8442-7.4705-9.903-8.0735-15.21-1.1381-2.1519 2.812-2.9023 2.1531-1.9056-1.6734 3.2094-12.322 20.942-12.518 27.422-0.30292 0.58001 1.0933 0.58001 1.0933 4.4393 0.97924 2.1226-0.0628 4.5428-2e-3 5.3782 0.13409 1.5189 0.2482 1.5189 0.2482 2.2819-1.1004 6.95-12.285 24.194-12.102 27.422 0.29002 0.99668 3.8265 0.24632 4.4854-1.9056 1.6734-4.0502-5.2926-11.17-6.402-13.967-2.1762-0.59678 0.9018-1.532 3.9007-1.7607 5.646-0.18089 1.3804 1.7236 2.9797 3.9608 3.326 3.9203 0.6068 11.18 5.6649 10.537 7.3413-0.18784 0.48951-3.1364 1.4295-5.135 1.637-1.9165 0.19898-1.8736 0.1335-0.90591 1.3812 7.652 9.8662 7.7752 24.802 0.29389 35.624-1.252 1.811-5.6434 6.483-6.0938 6.483-0.10503 0 0.22703 0.8147 0.73791 1.8104 1.9174 3.7371 1.4018 6.3824-1.3952 7.159-1.3574 0.37686-11.846 0.37905-13.6 3e-3 -1.3938-0.2989-2.9157-1.3347-2.9157-1.9843 0-0.81698-2.8404-0.48238-3.2903 0.3876-0.78517 1.5184-1.908 1.7399-9.1451 1.8042-4.5672 0.0406-6.7168-0.0367-7.276-0.26157zm13.386-44.723c4.7134-2.4884 3.31-9.7361-1.97-10.174-3.4274-0.28422-5.9709 1.9711-5.9862 5.3079-0.0193 4.1962 4.2635 6.8155 7.9562 4.866zm-2.0449-1.8105c-1.1498-0.55676-1.4616-2.1394-0.62968-3.197 1.427-1.8142 4.0505-0.56339 3.7475 1.7867-0.16406 1.2726-1.8383 2.0299-3.1178 1.4103zm16.194 1.9253c1.412-0.64132 2.6712-2.2023 2.9944-3.7119 1.332-6.2226-7.3156-9.3268-10.148-3.6429-2.3126 4.6409 2.4188 9.5054 7.1537 7.3548zm-5.084-2.243c-1.5322-1.318-0.6361-3.712 1.3895-3.712 1.9898 0 2.8625 2.1504 1.4472 3.5658-0.94232 0.94232-1.8563 0.98944-2.8366 0.14622z" fill="#9f9791"/>
   <path d="m341.33 213.82c-2.7595-0.74059-3.3598-3.4716-1.5128-6.8818 0.82061-1.5151 0.82061-1.5151-1.7745-4.0678-10.886-10.708-12.571-26.802-4.1064-39.232 1.7441-2.5613 1.7645-2.3445-0.2222-2.3557-2.226-0.0126-5.0627-0.96725-5.1731-1.7409-0.2543-1.7817 6.9621-6.6223 10.288-6.9006 2.6445-0.22132 4.8613-2.4255 4.5998-4.5736-1.1134-9.1452-10.103-9.8656-16.567-1.3276-1.6706 2.2068-1.5307-1.8758 0.18435-5.3784 4.738-9.6764 20.04-8.5354 26.003 1.9388 0.8284 1.4552 0.8284 1.4552 5.3982 1.4655 2.5134 6e-3 4.9865 0.10093 5.4959 0.21172 0.9195 0.20002 0.93163 0.19061 1.7167-1.3332 5.5064-10.688 21.391-12.073 26.184-2.2828 1.715 3.5026 1.855 7.5852 0.18436 5.3784-5.3211-7.0289-12.988-8.0659-15.621-2.1128-2.0947 4.7372-1.0583 7.6936 2.8058 8.0038 3.3476 0.26871 10.598 5.1139 10.342 6.9108-0.11102 0.77792-2.9472 1.7283-5.1951 1.7409-0.92164 5e-3 -1.6359 0.0987-1.5872 0.2078 0.0487 0.10914 0.79803 1.2672 1.6652 2.5734 8.1086 12.214 6.4139 28.072-4.1204 38.559-2.5812 2.5696-2.5812 2.5696-1.8127 3.9688 1.7628 3.2095 1.6291 5.831-0.35125 6.8893-1.0698 0.57173-1.3755 0.59527-7.7284 0.59527-7.5241 0-8.8274-0.27228-9.4716-1.9787-0.40715-1.0787-2.9431-1.2338-3.3369-0.20409-0.70207 1.8358-2.7429 2.3206-9.6706 2.2972-3.5303-0.0119-5.7413-0.13569-6.6161-0.37047zm15.104-12.907c-0.25582-1.3767-0.95417-6.1193-0.95587-6.4915-8e-4 -0.18696-0.37633 0.0869-0.83439 0.60859-1.0402 1.1848-1.9115 1.183-2.0134-4e-3 -0.22364-2.6052-0.87365-4.0603-2.1415-4.7938-8.827-5.107-14.592-14.946-14.273-24.36 0.11938-3.5199 0.11938-3.5199-0.87692-2.1321-4.6431 6.4676-6.9638 17.426-4.6364 21.893 4.8015 9.2159 15.057 16.008 24.341 16.121 1.5508 0.0188 1.5508 0.0188 1.391-0.84111zm6.4818 0.44395c0.12591-0.0778-0.0746-0.46255-0.44549-0.85496-0.37093-0.39241-1.0525-1.3386-1.5146-2.1025-1.0699-1.7688-1.1201-1.7548-1.6214 0.4491-0.70384 3.0945-0.73735 3.03 1.4673 2.8251 1.0369-0.0964 1.9884-0.2389 2.1143-0.31671zm3.8254-1.0104c11.198-3.8658 18.807-13.284 20.237-25.05 0.38852-3.1954-1.1361-7.3469-4.2687-11.624-1.0659-1.4552-1.0659-1.4552-0.88042 0.24867 1.4206 13.05-2.6101 20.706-14.446 27.44-0.91803 0.52226-0.92604 0.54261-0.92604 2.3534 0 2.3347-0.46563 2.5349-2.1198 0.91143-1.133-1.1119-1.133-1.1119-1.312-0.29681-0.16567 0.75428 0.4647 3.835 1.1576 5.6576 0.14081 0.37035 0.18424 0.74513 0.0965 0.83286-0.33418 0.33418 0.69856 0.13574 2.462-0.47307zm-6.0947-14.852c10.889-2.7877 19.985-13.895 19.346-23.623-0.18451-2.8089-0.4031-2.6404 2.472-1.9054 1.213 0.3101 2.7751 0.19934 4.5756-0.32443 2.5249-0.73449-4.5764-5.5878-8.6109-5.885-1.5513-0.11429-1.678-0.17768-2.6665-1.334-1.036-1.212-1.0387-1.2132-1.5998-0.70309-3.2878 2.989-10.277-0.1271-9.9068-4.417 0.10033-1.163-0.4541-1.3044-5.2403-1.3363-4.1832-0.0279-4.5906 0.0802-4.4136 1.1712 0.72942 4.4949-7.6858 7.9631-10.16 4.1872-0.45633-0.69645-0.45633-0.69645-1.8018 0.80791-1.3155 1.4708-1.3816 1.507-2.965 1.6237-2.8575 0.21052-5.8521 1.7525-8.3533 4.3011-1.2683 1.2924-1.2683 1.2924-0.26458 1.5927 1.9356 0.57904 3.8424 0.65987 5.1048 0.21638 2.3942-0.84108 2.31-1.024 1.5702 3.4093-1.0683 6.402 0.0718 9.9706 4.6487 14.551 6.0467 6.0508 13.069 8.9992 18.266 7.6688zm-11.652-15.044c-6.5099-3.0776-4.2996-12.84 2.9104-12.855 7.349-0.0149 9.3733 9.9245 2.6458 12.991-1.5421 0.70297-3.9032 0.64496-5.5562-0.13651zm5.042-0.96793c1.8615-0.68948 3.3302-2.9657 3.3302-5.1612 0-4.9418-5.9432-7.3949-9.3825-3.8728-4.1995 4.3007 0.37929 11.135 6.0523 9.034zm-1.4701-2.1822c-0.99921-0.50726-1.4492-1.6256-1.046-2.5992 0.86095-2.0785 3.9564-1.5116 3.9564 0.72465 0 0.75013-0.80732 1.9511-1.3116 1.9511-0.12795 0-0.3912 0.0583-0.585 0.12962-0.19381 0.0713-0.65003-0.0215-1.0138-0.20618zm10.953 3.2763c-4.3357-1.969-5.372-7.7052-2.0011-11.076 4.2121-4.2121 11.534-1.1436 11.534 4.8337 0 4.8305-5.177 8.2206-9.5329 6.2425zm5.4484-1.441c4.9416-2.4834 2.9756-10.32-2.5871-10.311-6.7165 0.01-7.774 9.3038-1.247 10.959 1.1036 0.27988 2.4363 0.0547 3.8341-0.6477zm-4.9628-1.9026c-1.9706-0.8286-1.2286-3.8249 0.9473-3.8249 0.9147 0 1.8816 0.76157 1.9316 1.5214 0.13446 2.0433-1.1168 3.0445-2.8789 2.3036z" fill="#635e5b"/>
   <path d="m342.51 214.05c-3.9494-0.72411-4.8773-4.1632-2.1548-7.9866 0.56165-0.78876 0.56165-0.78876-0.29711-1.4438-12.379-9.4421-15.005-29.053-5.5756-41.644 1.1589-1.5475 1.1589-1.5475-0.8969-1.724-2.3272-0.19978-5.0985-1.1209-5.0985-1.6946 0-1.8498 7.1257-6.5092 10.583-6.9203 4.0206-0.47804 5.5283-4.1578 3.4113-8.3255-2.7358-5.3858-10.44-4.5823-14.949 1.559-1.7957 2.4458-2.2359 2.1831-1.5837-0.94498 2.7243-13.066 20.82-13.647 27.418-0.87987 0.54032 1.0455 0.652 1.1241 1.3732 0.96564 1.0738-0.23585 6.5889-0.23791 8.5682-3e-3 1.6157 0.19159 1.6157 0.19159 2.208-0.95446 6.6022-12.774 24.697-12.199 27.422 0.87189 0.65223 3.1281 0.21197 3.3908-1.5837 0.94498-4.5117-6.1453-12.204-6.9444-14.954-1.5536-2.2066 4.3252-1.1153 7.9407 2.5104 8.3171 3.5484 0.36841 10.695 4.9896 10.695 6.9155 0 0.59281-2.7861 1.515-5.062 1.6755-2.0193 0.1424-2.0193 0.1424-0.59009 2.2413 8.9403 13.13 6.48 31.337-5.5215 40.86-0.98708 0.78323-0.98708 0.78323-0.29184 1.8064 1.5771 2.3209 1.8973 5.5184 0.67499 6.7408-2.3677 2.3677-16.297 1.7443-17.742-0.79397-0.69293-1.218-3.1662-1.1607-3.7473 0.0868-0.71242 1.5296-2.13 1.8482-8.599 1.9332-3.0559 0.0401-5.8539 0.0184-6.2177-0.0483zm1.8142-2.771c0.71725-3.4726 3.0531-6.9475 3.6408-5.4161 0.0807 0.21023-0.0421 1.4814-0.27288 2.8248-0.75189 4.3771-0.843 4.2013 2.1777 4.2013 6.4648 0 7.603-0.98068 5.8345-5.0271-3.221-7.37-14.779-5.624-15.501 2.3417-0.1569 1.7302 0.0359 2.0066 1.6665 2.389 2.0474 0.48009 2.089 0.45782 2.4549-1.3136zm26.756 0.0887c-3e-3 -0.83675-0.18039-2.3513-0.39526-3.3656-0.87064-4.1101 1.5332-2.7776 3.0359 1.6828 0.29644 0.87999 0.53899 1.9763 0.53899 2.4362 0 0.83619 0 0.83619 1.3336 0.65928 2.6675-0.35385 3.1447-0.92499 2.6431-3.1633-2.0013-8.9302-15.257-8.4211-16.076 0.61743-0.19755 2.1786 0.71076 2.5708 6.0803 2.6256 2.8443 0.029 2.8443 0.029 2.8397-1.4924zm-10.19-2.0978c1.1815-6.2978 9.1272-9.6056 14.457-6.0186 1.7336 1.1666 1.4396 1.2668 4.1351-1.4086 10.319-10.242 11.784-26.733 3.3869-38.126-1.4412-1.9554-1.4662-1.9562-1.1871-0.0404 1.2429 8.5306-2.151 15.585-10.525 21.878-4.1966 3.1534-4.9957 4.505-4.7942 8.1084 0.11856 2.1192-0.47479 2.3263-2.0763 0.72485-0.58548-0.58548-1.141-0.98806-1.2344-0.89461-0.38654 0.38655-0.13138 2.7434 0.53255 4.9189 0.75499 2.4739 0.63785 3.301-0.379 2.6759-0.4155-0.25541-2.778-3.4661-3.0703-4.1725-0.24593-0.5944-0.64548 0.45898-1.082 2.8527-0.24129 1.3231-0.48951 2.6604-0.55159 2.9717-0.45392 2.2769-1.5426 0.44508-2.2235-3.7411-0.90135-5.5418-0.71057-5.1006-1.726-3.9919-1.3492 1.473-1.8499 1.1871-2.0439-1.1674-0.25087-3.0445-1.8687-5.8717-4.2459-7.4201-8.5297-5.5557-13.044-13.993-11.881-22.205 0.35463-2.5038 0.32864-2.515-1.157-0.4971-8.6722 11.779-6.5423 30.011 4.5848 39.247 1.7056 1.4157 1.7056 1.4157 2.7599 0.6519 5.218-3.7799 13.206-1.2445 14.74 4.6785 0.18337 0.70806 0.37755 1.4362 0.43152 1.6181 0.27595 0.93 2.9565 0.38301 3.1489-0.64256zm-1.7971-13.784c0.87904-1.1818 1.4825-1.0696 2.1122 0.39266 0.54609 1.2681 0.54609 1.2681 0.43008-0.31936-0.24125-3.3014 0.98077-4.8899 2.4594-3.1971 0.90512 1.0363 0.90512 1.0363 0.91674-0.13229 6e-3 -0.64271 0.17386-1.6235 0.37217-2.1796 0.3277-0.91889 0.32062-0.99557-0.0778-0.8416-4.7179 1.8235-7.9734 1.8596-11.88 0.13163-1.0791-0.47735-1.1633-0.48269-0.97788-0.0621 0.11157 0.2531 0.49281 1.2936 0.84719 2.3123 0.35438 1.0186 0.69051 1.9002 0.74697 1.9589 0.0564 0.0587 0.40034-0.56633 0.76419-1.3891 1.1792-2.6664 1.4666-2.3132 2.1199 2.6052 0.70936 5.3402 0.67344 5.2434 1.1875 3.2012 0.24371-0.96814 0.68426-2.0845 0.979-2.4807zm2.8106-6.5617c4.1326-1.0709 8.4455-3.7768 12.357-7.7528 5.9966-6.096 7.5347-11.411 5.8288-20.14-0.30202-1.5455-0.0548-1.7502 1.4297-1.1833 1.3445 0.51346 4.2734 0.43678 5.9257-0.15514 2.3766-0.85141-5.6192-6.0699-9.3004-6.0699-0.9385 0-1.2585-0.16844-2.3355-1.2292-1.248-1.2292-1.248-1.2292-2.0674-0.5397-3.0491 2.5656-9.2705-0.25341-9.2705-4.2007 0-1.5903 0.11978-1.5351-3.9688-1.8288-4.634-0.33292-5.9374 0.0669-6.0854 1.8666-0.359 4.3658-6.9861 6.9415-9.6659 3.7567-0.68736-0.81688-0.68736-0.81688-2.1991 0.67912-1.3451 1.3311-1.6318 1.496-2.6007 1.496-3.0694 0-10.592 4.4475-9.771 5.7766 0.49469 0.80042 4.8567 1.0716 6.5216 0.40551 1.4885-0.59557 1.6784-0.30835 1.1897 1.799-0.64572 2.7843-0.78848 6.6731-0.32472 8.8461 2.1964 10.291 15.868 20.669 24.337 18.474zm-1.1488-6.0791c-35.316-40.016-17.658-20.008 0 0zm-10.573-11.991c-7.4722-2.4504-6.0724-13.114 1.7215-13.114 7.0071 0 9.2077 9.4069 2.9476 12.6-1.1529 0.58816-3.6159 0.85917-4.6691 0.51377zm4.5866-1.7124c2.5572-1.4986 3.4823-4.7059 2.1092-7.3125-2.2354-4.2435-8.0177-4.1697-10.036 0.1282-2.3756 5.0576 3.0954 10.016 7.9272 7.1843zm-2.7329-2.2895c-1.1987-1.1987-0.2195-3.4396 1.5029-3.4396 0.82154 0 1.9367 1.1151 1.9367 1.9367 0 1.7224-2.2409 2.7016-3.4396 1.5029zm12.063 3.8332c-6.0124-2.2965-5.9271-10.692 0.12903-12.704 6.5579-2.1782 11.659 6.1691 6.7621 11.066-1.753 1.753-4.7344 2.4616-6.8911 1.6378zm3.8124-0.91879c2.2392-0.62305 3.9571-2.9796 3.9571-5.4279 0-4.9407-5.909-7.5178-9.4489-4.121-4.2524 4.0806-0.19711 11.132 5.4918 9.5489zm-4.4787-3.0824c-0.72744-0.92479-0.69261-1.8285 0.10106-2.6222 1.2296-1.2296 3.3193-0.40614 3.3193 1.308 0 1.835-2.312 2.7233-3.4204 1.3142zm-12.714-15.905c3.6447-1.8636 3.1735-5.4298-1.3028-9.8608-7.516-7.4399-18.069-6.4819-21.594 1.9605-0.42988 1.0294-0.42988 1.0294 0.97829-0.21071 6.6531-5.8592 14.02-3.7434 15.829 4.5463 0.98314 4.5046 2.5068 5.3965 6.0894 3.5647zm21.781 0.43384c0.82371-0.37531 1.1128-1.032 1.7603-3.9985 1.8093-8.2897 9.176-10.406 15.829-4.5463 1.4082 1.2401 1.4082 1.2401 0.97829 0.21071-3.5255-8.4423-14.078-9.4004-21.594-1.9605-3.2362 3.2034-4.56 6.6077-3.2636 8.3926 1.2044 1.6582 4.5829 2.6798 6.29 1.902z" fill="#37312c"/>
  </g>
 </g>
 <path d="m2.9975 253v-250h49.005v18.242a3.7795 3.7795 135 0 1-3.7795 3.7795h-20.277a3.7795 3.7795 135 0 0-3.7795 3.7795v198.4a3.7795 3.7795 45 0 0 3.7795 3.7795h20.277a3.7795 3.7795 45 0 1 3.7795 3.7795v18.242z" fill="#9f9791" stroke="#3b3836" stroke-width="5.9949" style="mix-blend-mode:normal"/>
 <path d="m253.06 2.9975v250h-49.005v-18.242a3.7795 3.7795 135 0 1 3.7795-3.7795h20.277a3.7795 3.7795 135 0 0 3.7795-3.7795v-198.4a3.7795 3.7795 45 0 0-3.7795-3.7795h-20.277a3.7795 3.7795 45 0 1-3.7795-3.7795v-18.242z" fill="#9f9791" stroke="#3b3836" stroke-width="5.995" style="mix-blend-mode:normal"/>
 <circle cx="344.64" cy="157.17" r="0" fill="#0cc800" stroke="#000" stroke-width=".26458"/>
 <g transform="matrix(1.7089 0 0 1.7089 87.566 -46.716)" fill="#d53032" aria-label="±">
  <path d="m25.572 109.28h4.2523a0.75591 0.75591 45 0 1 0.75591 0.75591v0.81697a0.75591 0.75591 135 0 1-0.75591 0.75591h-4.2523a0.75591 0.75591 135 0 0-0.75591 0.75591v4.1862a0.75591 0.75591 135 0 1-0.75591 0.75591h-0.81695a0.75591 0.75591 45 0 1-0.75591-0.75591v-4.1862a0.75591 0.75591 45 0 0-0.75591-0.75591h-4.2358a0.75591 0.75591 45 0 1-0.75591-0.75591v-0.81697a0.75591 0.75591 135 0 1 0.75591-0.75591h4.2358a0.75591 0.75591 135 0 0 0.75591-0.75591v-4.1532a0.75591 0.75591 135 0 1 0.75591-0.75591h0.81695a0.75591 0.75591 45 0 1 0.75591 0.75591v4.1532a0.75591 0.75591 45 0 0 0.75591 0.75591zm5.0082 9.1972v0.81694a0.75591 0.75591 135 0 1-0.75591 0.75591h-12.329a0.75591 0.75591 45 0 1-0.75591-0.75591v-0.81694a0.75591 0.75591 135 0 1 0.75591-0.75591h12.329a0.75591 0.75591 45 0 1 0.75591 0.75591z" fill="#d53032" stroke-width=".84563"/>
 </g>
 <text x="128" y="152.03264" fill="#000000" font-family="sans-serif" font-size="10.583px" stroke-width=".26458" style="line-height:1.25" xml:space="preserve"><tspan x="128" y="152.03264" stroke-width=".26458"> </tspan></text>
</svg>
